<?xml version="1.0" standalone="no"?>
<!DOCTYPE svg PUBLIC "-//W3C//DTD SVG 20010904//EN"
 "http://www.w3.org/TR/2001/REC-SVG-20010904/DTD/svg10.dtd">
<svg version="1.0" xmlns="http://www.w3.org/2000/svg"
 width="232" height="31" viewBox="0 0 132 31" fill="none" viewBox="0 0 1280.000000 1280.000000"
 preserveAspectRatio="xMidYMid meet">

<g transform="translate(0.000000,1280.000000) scale(0.100000,-0.100000)"
fill="#000000" stroke="none">
<path d="M0 6400 l0 -6400 6400 0 6400 0 0 6400 0 6400 -6400 0 -6400 0 0
-6400z m12410 0 l0 -6010 -6010 0 -6010 0 0 6010 0 6010 6010 0 6010 0 0
-6010z"/>
<path d="M405 12388 c-3 -7 -4 -2706 -3 -5998 l3 -5985 5995 0 5995 0 0 5995
0 5995 -5993 3 c-4789 2 -5994 0 -5997 -10z m6048 -3295 c23 -49 42 -89 42
-90 1 -1 32 9 70 23 92 33 101 29 70 -39 -14 -29 -28 -74 -31 -100 l-7 -46 71
35 c39 20 75 33 81 30 5 -3 0 -22 -11 -43 -14 -28 -18 -49 -14 -82 6 -47 53
-141 70 -141 6 -1 29 -4 52 -9 l41 -8 -37 37 c-92 92 -76 241 35 325 98 76
235 20 235 -95 0 -60 -33 -105 -90 -120 -98 -26 -157 70 -91 149 20 24 33 32
45 28 26 -10 17 -51 -12 -55 -12 -2 -27 -13 -33 -24 -9 -16 -7 -26 8 -47 29
-38 73 -40 114 -3 28 25 34 37 34 72 0 35 -6 47 -33 71 -26 24 -41 29 -81 29
-42 0 -54 -5 -94 -41 -91 -79 -98 -193 -16 -271 28 -27 53 -39 93 -48 71 -15
127 -6 246 37 138 50 188 63 251 63 33 0 70 7 90 18 55 28 171 23 235 -10 63
-33 116 -91 152 -166 15 -31 32 -61 37 -65 6 -4 47 -5 91 -2 l82 7 11 -69 c6
-37 12 -84 14 -103 l2 -35 45 4 c53 4 70 15 70 48 0 32 32 92 67 125 38 36
110 68 156 68 36 0 37 -1 37 -37 0 -88 -79 -191 -162 -213 -24 -7 -50 -15 -58
-19 -14 -8 -32 -88 -23 -103 2 -5 23 -8 47 -8 23 0 68 -5 100 -11 l57 -12 -6
-81 c-3 -45 -2 -85 2 -91 4 -5 34 -22 65 -37 117 -56 186 -149 196 -264 3 -48
0 -71 -17 -109 -13 -30 -21 -68 -21 -104 0 -63 -13 -113 -63 -251 -43 -117
-51 -175 -37 -243 23 -113 119 -173 225 -142 80 23 135 90 135 164 0 60 -43
106 -100 106 -35 0 -47 -6 -72 -34 -37 -41 -35 -85 3 -114 21 -15 31 -17 47
-8 11 6 22 21 24 33 4 29 45 38 55 12 4 -12 -4 -25 -28 -45 -79 -66 -175 -7
-149 91 31 116 193 123 240 10 43 -104 -57 -237 -186 -248 -68 -6 -133 18
-169 59 -26 32 -29 28 -19 -33 5 -30 14 -40 53 -62 70 -38 121 -43 170 -18 25
13 43 17 46 11 4 -5 -9 -42 -29 -80 l-35 -71 47 7 c26 3 71 17 100 30 39 18
54 21 58 12 4 -11 -15 -76 -39 -137 -5 -11 17 -26 83 -57 50 -23 90 -47 90
-53 0 -6 -40 -30 -90 -53 -66 -31 -88 -46 -83 -57 24 -61 43 -126 39 -137 -4
-9 -19 -6 -58 12 -29 13 -74 27 -100 30 l-47 7 35 -71 c20 -38 33 -74 30 -80
-3 -5 -22 0 -43 11 -48 24 -106 18 -173 -18 -44 -24 -48 -29 -57 -81 l-10 -55
24 31 c40 51 96 74 169 69 173 -11 270 -204 152 -303 -42 -35 -115 -35 -157 1
-36 30 -56 90 -42 127 13 33 49 57 86 57 39 -1 101 -50 92 -74 -10 -26 -51
-17 -55 12 -2 12 -13 27 -24 33 -16 9 -26 7 -47 -8 -38 -29 -40 -73 -3 -114
25 -28 37 -34 72 -34 35 0 47 6 71 33 24 26 29 41 29 81 0 42 -5 54 -41 95
-79 89 -194 96 -271 15 -27 -28 -39 -53 -48 -93 -15 -71 -6 -127 37 -246 50
-138 63 -188 63 -251 0 -36 8 -74 21 -104 17 -38 20 -61 17 -109 -10 -115 -79
-208 -196 -264 -31 -15 -61 -31 -65 -37 -4 -5 -5 -46 -2 -91 l6 -81 -57 -12
c-32 -6 -77 -11 -100 -11 -24 0 -45 -4 -48 -9 -10 -15 9 -94 24 -102 8 -4 34
-12 58 -19 83 -22 162 -125 162 -212 0 -37 -1 -38 -37 -38 -88 0 -191 79 -213
162 -7 24 -15 50 -19 58 -8 15 -87 34 -102 24 -5 -3 -9 -24 -9 -48 0 -23 -5
-68 -11 -100 l-12 -57 -81 6 c-45 3 -85 2 -91 -2 -5 -4 -22 -34 -38 -66 -35
-73 -92 -136 -154 -167 -61 -31 -179 -35 -232 -7 -20 10 -57 17 -90 17 -63 0
-113 13 -251 63 -120 43 -175 52 -248 36 -157 -32 -199 -210 -75 -318 40 -36
52 -41 94 -41 68 0 111 38 113 99 1 37 -4 47 -32 73 -42 37 -86 36 -115 -3
-15 -21 -17 -31 -8 -47 6 -11 21 -22 33 -24 29 -4 38 -45 12 -55 -12 -4 -25 4
-45 28 -66 79 -7 175 91 149 116 -31 123 -193 10 -240 -104 -43 -237 57 -248
186 -6 70 18 134 64 172 l35 29 -55 -10 c-51 -9 -56 -13 -80 -57 -36 -67 -42
-125 -18 -173 11 -21 16 -40 11 -43 -6 -3 -42 10 -80 30 l-71 35 7 -47 c3 -26
17 -71 30 -100 30 -67 22 -71 -70 -38 -38 14 -69 24 -70 23 -4 -21 -88 -177
-95 -177 -7 0 -91 156 -95 177 -1 1 -32 -9 -70 -23 -92 -33 -100 -29 -70 38
13 29 27 74 30 100 l7 47 -71 -35 c-38 -20 -74 -33 -80 -30 -5 3 0 22 11 43
14 28 18 49 14 82 -6 47 -53 141 -70 141 -6 1 -30 4 -53 9 l-41 8 34 -32 c105
-100 76 -278 -57 -345 -100 -52 -209 6 -209 111 0 59 34 104 90 119 64 17 120
-20 120 -80 0 -35 -47 -102 -68 -98 -27 5 -22 52 6 56 12 2 27 13 33 24 9 16
7 26 -8 47 -29 38 -73 40 -114 3 -28 -25 -34 -37 -34 -72 0 -35 6 -47 33 -71
26 -24 41 -29 81 -29 42 0 54 5 94 41 91 79 98 193 16 271 -28 27 -53 39 -93
48 -71 15 -127 6 -246 -37 -138 -50 -188 -63 -251 -63 -36 0 -74 -8 -104 -21
-38 -17 -61 -20 -109 -17 -115 10 -208 79 -264 196 -15 31 -31 61 -37 65 -5 4
-46 5 -91 2 l-81 -6 -12 57 c-6 32 -11 77 -11 100 0 24 -3 45 -7 47 -16 9 -96
-9 -104 -23 -4 -8 -12 -34 -19 -58 -22 -83 -125 -162 -212 -162 -37 0 -38 1
-38 38 0 45 32 117 68 155 33 35 93 67 125 67 33 0 44 17 48 70 l4 45 -35 2
c-19 2 -66 8 -103 14 l-68 11 6 81 c3 45 2 87 -2 92 -4 6 -34 22 -65 37 -75
36 -133 89 -166 152 -33 64 -38 180 -9 235 10 21 17 57 17 95 0 65 8 95 63
246 43 119 52 175 37 246 -33 157 -211 201 -319 78 -36 -41 -41 -53 -41 -95 0
-40 5 -55 29 -81 24 -27 36 -33 71 -33 35 0 47 6 72 34 37 41 35 85 -3 114
-21 15 -31 17 -47 8 -11 -6 -22 -21 -24 -33 -4 -29 -45 -38 -55 -12 -4 12 4
25 28 45 79 66 175 7 149 -91 -31 -116 -193 -123 -240 -10 -43 104 57 237 186
248 68 6 133 -18 169 -59 26 -32 29 -28 19 33 -5 30 -14 40 -54 62 -67 36
-125 42 -173 18 -21 -11 -40 -16 -43 -11 -3 6 10 42 30 80 l35 71 -47 -7 c-26
-3 -71 -17 -100 -30 -39 -18 -54 -21 -58 -12 -4 11 15 76 39 137 5 11 -17 26
-83 57 -50 23 -90 47 -90 53 0 6 40 30 90 53 66 31 88 46 83 57 -24 61 -43
126 -39 137 4 9 19 6 58 -12 29 -13 74 -27 100 -30 l47 -7 -35 71 c-20 38 -33
74 -30 80 3 5 22 0 43 -11 28 -14 49 -18 82 -14 47 6 141 53 141 70 0 6 3 29
7 51 l6 40 -27 -32 c-58 -68 -185 -83 -265 -30 -111 74 -134 200 -49 272 42
35 115 35 157 -1 36 -30 56 -90 42 -127 -13 -33 -49 -57 -86 -57 -39 1 -101
50 -92 74 10 26 51 17 55 -12 2 -12 13 -27 24 -33 16 -9 26 -7 47 8 38 29 40
73 3 114 -25 28 -37 34 -72 34 -35 0 -47 -6 -71 -33 -24 -26 -29 -41 -29 -81
0 -42 5 -54 41 -94 55 -63 120 -84 194 -62 132 38 165 179 90 380 -56 153 -65
185 -65 251 0 41 -7 78 -21 109 -17 38 -20 61 -17 109 10 115 79 208 196 264
31 15 61 32 65 37 4 6 5 46 2 91 l-6 81 57 12 c32 6 77 11 100 11 24 0 45 3
47 8 9 15 -9 95 -23 103 -8 4 -34 12 -58 19 -83 22 -162 125 -162 213 0 36 1
37 38 37 87 0 190 -79 212 -162 7 -24 15 -50 19 -58 8 -14 88 -32 104 -23 4 2
7 23 7 47 0 23 5 69 12 100 l11 58 73 -7 c75 -7 114 -1 114 16 0 31 61 127
108 170 85 78 211 101 301 56 21 -10 58 -17 95 -17 65 0 95 -8 246 -63 119
-43 175 -52 246 -37 74 15 119 56 139 123 22 75 2 140 -61 196 -41 36 -53 41
-95 41 -40 0 -55 -5 -81 -29 -27 -24 -33 -36 -33 -71 0 -35 6 -47 34 -72 41
-37 85 -35 114 3 15 21 17 31 8 47 -6 11 -21 22 -33 24 -29 4 -38 45 -12 55
12 4 25 -4 45 -28 66 -79 7 -175 -91 -149 -116 31 -123 193 -10 240 104 43
237 -57 248 -186 6 -70 -18 -134 -64 -172 l-35 -29 55 10 c51 9 56 13 80 57
36 67 42 125 18 173 -11 21 -16 40 -11 43 6 3 42 -10 80 -30 l71 -35 -7 47
c-3 26 -17 71 -30 100 -18 39 -21 54 -12 58 11 4 76 -15 137 -39 11 -5 26 17
57 83 23 50 47 90 53 90 5 0 29 -39 53 -87z"/>
<path d="M6360 9060 l-34 -70 35 -30 c18 -16 36 -29 39 -29 3 0 21 13 39 29
l35 30 -34 70 c-19 38 -37 70 -40 70 -3 0 -21 -32 -40 -70z"/>
<path d="M6195 8993 c12 -33 35 -127 35 -146 0 -21 150 -177 170 -177 7 0 47
35 90 78 69 69 78 82 84 125 4 27 14 67 22 89 8 23 12 43 9 46 -9 9 -95 -30
-95 -43 0 -8 4 -24 9 -37 7 -20 0 -32 -55 -92 l-64 -68 -64 68 c-55 60 -62 72
-55 92 15 39 10 49 -31 66 -52 21 -64 20 -55 -1z"/>
<path d="M6311 8938 c-7 -19 -2 -31 38 -73 25 -27 48 -50 51 -50 3 0 26 23 51
50 40 42 45 54 38 73 l-9 24 -40 -32 -40 -32 -40 32 -40 32 -9 -24z"/>
<path d="M6103 8808 c1 -34 -7 -71 -21 -102 -12 -27 -21 -51 -19 -52 2 -2 26
-1 54 3 58 6 68 19 79 102 l6 49 -44 26 c-25 14 -47 26 -50 26 -3 0 -5 -24 -5
-52z"/>
<path d="M6641 8834 l-43 -26 6 -50 c9 -67 25 -98 50 -98 12 0 37 -3 58 -6
l36 -6 -26 53 c-19 38 -26 67 -26 106 1 29 -2 53 -5 53 -3 0 -26 -12 -50 -26z"/>
<path d="M6220 8738 c-6 -24 -13 -49 -15 -55 -3 -10 14 -13 66 -13 65 0 69 1
60 18 -10 18 -87 92 -96 92 -2 0 -9 -19 -15 -42z"/>
<path d="M6520 8744 c-22 -20 -45 -46 -51 -56 -9 -17 -5 -18 60 -18 l69 0 -13
51 c-8 28 -16 53 -18 56 -3 2 -24 -12 -47 -33z"/>
<path d="M5070 8731 c-72 -22 -142 -84 -179 -158 -28 -56 -28 -77 2 -69 12 3
41 6 63 6 35 0 48 7 83 40 22 22 47 40 55 40 7 0 19 14 26 30 13 33 76 90 97
90 22 0 14 17 -9 24 -31 8 -107 6 -138 -3z"/>
<path d="M7588 8734 c-27 -8 -22 -18 17 -37 22 -10 47 -35 63 -62 15 -24 33
-45 39 -45 7 0 32 -18 54 -40 31 -30 50 -40 74 -40 18 0 47 -3 64 -6 38 -8 41
8 10 69 -28 55 -84 113 -134 139 -39 21 -149 33 -187 22z"/>
<path d="M5320 8706 c0 -4 9 -20 21 -35 12 -16 24 -49 26 -74 l5 -45 62 -17
c33 -9 77 -17 96 -18 31 0 220 60 235 74 3 4 -18 9 -47 12 -29 4 -84 19 -123
33 -147 55 -275 87 -275 70z"/>
<path d="M7363 8690 c-40 -10 -80 -23 -90 -28 -39 -20 -141 -52 -193 -60 -31
-5 -48 -12 -40 -15 85 -35 202 -71 230 -70 19 0 63 9 98 18 59 17 62 19 62 49
0 17 11 51 25 75 14 23 25 45 25 47 0 9 -48 2 -117 -16z"/>
<path d="M5224 8681 c-77 -35 -111 -115 -77 -181 25 -48 64 -66 114 -51 95 28
114 146 37 228 -26 27 -23 27 -74 4z"/>
<path d="M7497 8673 c-14 -16 -32 -50 -39 -76 -11 -44 -11 -52 7 -85 28 -51
77 -78 123 -66 107 27 102 178 -8 234 -50 25 -51 25 -83 -7z"/>
<path d="M6153 8635 c-435 -50 -830 -215 -1168 -488 -117 -95 -300 -286 -392
-411 -562 -757 -589 -1794 -68 -2576 184 -276 454 -533 732 -697 736 -432
1647 -413 2365 50 265 171 533 448 700 722 150 246 250 518 297 805 103 630
-68 1272 -472 1775 -146 181 -388 392 -591 515 -413 249 -924 360 -1403 305z
m522 -96 c479 -62 907 -273 1249 -615 306 -305 506 -678 591 -1099 53 -265 53
-581 0 -850 -83 -415 -284 -791 -586 -1095 -545 -548 -1334 -761 -2089 -563
-612 160 -1149 617 -1407 1195 -130 293 -186 561 -186 888 0 258 29 444 103
670 182 553 568 1000 1086 1259 268 133 541 206 844 225 82 5 304 -4 395 -15z"/>
<path d="M6235 8479 c-719 -57 -1365 -491 -1694 -1139 -337 -663 -291 -1468
118 -2085 125 -188 305 -382 479 -514 843 -639 2026 -549 2758 211 304 316
493 693 563 1123 28 171 28 477 1 650 -139 861 -803 1552 -1655 1719 -119 23
-356 48 -429 45 -17 -1 -80 -6 -141 -10z"/>
<path d="M5072 8548 c-19 -19 -14 -30 10 -26 13 2 24 11 26 21 4 20 -18 23
-36 5z"/>
<path d="M7692 8543 c2 -10 13 -19 26 -21 24 -4 29 7 10 26 -18 18 -40 15 -36
-5z"/>
<path d="M4276 8521 c-12 -18 35 -118 72 -153 46 -43 109 -65 130 -45 28 29
-35 139 -98 172 -36 18 -99 35 -104 26z"/>
<path d="M8462 8511 c-66 -23 -116 -70 -137 -130 -13 -37 -13 -47 -2 -58 29
-29 139 33 172 97 18 36 35 99 26 104 -3 2 -30 -4 -59 -13z"/>
<path d="M5351 8485 c-14 -24 -37 -43 -68 -57 -43 -19 -51 -20 -88 -7 -25 9
-47 26 -60 46 -16 25 -25 30 -45 26 -49 -11 -60 -30 -60 -108 0 -48 5 -76 13
-83 24 -20 107 2 182 48 39 24 114 65 168 91 106 52 108 59 21 73 -40 7 -42 6
-63 -29z"/>
<path d="M7353 8508 c-24 -5 -43 -12 -43 -16 0 -4 26 -18 57 -31 31 -14 108
-55 172 -91 119 -68 195 -92 219 -68 7 7 12 43 12 83 0 78 -11 97 -60 108 -20
4 -29 -1 -45 -26 -13 -20 -35 -37 -60 -46 -37 -13 -45 -12 -88 7 -31 14 -54
33 -68 56 -22 38 -29 40 -96 24z"/>
<path d="M4666 8443 c-3 -21 -6 -61 -6 -90 l0 -51 65 -7 c94 -10 95 -10 95 88
l0 84 -46 7 c-93 12 -101 10 -108 -31z"/>
<path d="M4867 8462 c-21 -23 -32 -109 -18 -144 10 -27 14 -28 76 -28 44 0 67
4 70 13 2 6 5 49 8 95 l4 82 -62 0 c-46 0 -66 -4 -78 -18z"/>
<path d="M7797 8398 c2 -46 6 -89 8 -95 3 -9 26 -13 70 -13 62 0 66 1 76 28
14 35 3 121 -18 144 -12 14 -32 18 -79 18 l-62 0 5 -82z"/>
<path d="M8013 8473 l-33 -4 0 -85 c0 -99 0 -99 95 -89 l65 7 0 42 c0 24 -3
64 -6 90 l-7 46 -41 -2 c-22 0 -56 -3 -73 -5z"/>
<path d="M4520 8237 c0 -55 19 -73 84 -82 l49 -8 -8 49 c-9 65 -27 84 -82 84
l-43 0 0 -43z"/>
<path d="M8177 8263 c-8 -10 -18 -40 -22 -67 l-8 -49 49 8 c65 9 84 27 84 82
l0 43 -43 0 c-29 0 -49 -6 -60 -17z"/>
<path d="M4667 8264 c-9 -9 4 -77 22 -107 17 -30 62 -47 127 -47 l42 0 -16 63
c-21 87 -32 97 -107 97 -34 0 -64 -3 -68 -6z"/>
<path d="M4922 8260 c-34 -3 -63 -7 -64 -10 -4 -11 23 -130 31 -134 12 -8 131
95 131 113 0 26 -31 36 -98 31z"/>
<path d="M5045 8261 c-10 -18 17 -23 33 -7 15 15 15 16 -5 16 -12 0 -24 -4
-28 -9z"/>
<path d="M7722 8254 c9 -9 21 -13 27 -9 16 10 3 25 -22 25 -20 0 -20 -1 -5
-16z"/>
<path d="M7796 8255 c-9 -7 -16 -19 -16 -28 0 -19 120 -121 131 -110 15 16 37
134 25 138 -33 10 -125 10 -140 0z"/>
<path d="M7988 8253 c-8 -10 -22 -46 -30 -80 l-16 -63 42 0 c98 0 140 33 148
115 l3 40 -66 3 c-53 2 -68 -1 -81 -15z"/>
<path d="M4348 8133 c-31 -5 -34 -19 -22 -107 l7 -46 84 0 c98 0 98 1 88 95
l-7 65 -61 -1 c-34 -1 -74 -4 -89 -6z"/>
<path d="M4536 8133 c-3 -4 -6 -34 -6 -68 0 -75 10 -86 98 -107 l62 -16 0 42
c0 65 -17 110 -47 127 -30 18 -98 31 -107 22z"/>
<path d="M8210 8131 c-77 -15 -100 -49 -100 -152 l0 -37 63 16 c89 22 98 32
95 111 -2 35 -7 65 -13 66 -5 2 -26 -1 -45 -4z"/>
<path d="M8295 8077 c-11 -97 -10 -97 89 -97 l84 0 7 71 c4 38 5 73 2 76 -3 3
-44 8 -90 10 l-85 6 -7 -66z"/>
<path d="M4705 8079 c3 -13 9 -50 13 -82 l7 -58 68 69 69 69 -66 7 c-36 4 -73
9 -81 13 -13 4 -15 0 -10 -18z"/>
<path d="M8012 8086 l-73 -11 69 -68 69 -69 7 66 c4 36 9 73 12 81 4 8 2 14
-2 14 -5 -1 -42 -7 -82 -13z"/>
<path d="M4380 7953 c-47 -9 -60 -31 -60 -98 l0 -62 83 4 c45 3 88 6 95 8 8 3
12 26 12 70 0 61 -2 66 -26 75 -26 10 -59 11 -104 3z"/>
<path d="M8313 7950 c-21 -8 -23 -16 -23 -75 0 -44 4 -67 13 -70 6 -2 49 -5
95 -8 l82 -4 0 62 c0 47 -4 66 -18 78 -21 20 -118 31 -149 17z"/>
<path d="M4546 7941 c-8 -12 -8 -126 -1 -143 13 -33 43 -19 94 44 28 34 47 66
43 69 -11 11 -132 37 -136 30z"/>
<path d="M8185 7933 c-33 -8 -64 -18 -68 -22 -12 -12 91 -131 113 -131 10 0
21 8 25 18 9 21 6 135 -3 143 -4 3 -34 -1 -67 -8z"/>
<path d="M4225 7908 c-122 -62 -190 -199 -159 -315 9 -32 18 -29 37 12 10 22
35 47 62 63 24 15 45 33 45 39 0 7 18 32 40 54 30 31 40 50 40 74 0 18 3 47 6
64 5 26 3 31 -12 31 -11 -1 -37 -10 -59 -22z"/>
<path d="M8504 7899 c3 -17 6 -46 6 -64 0 -24 10 -43 40 -74 22 -22 40 -47 40
-54 0 -6 21 -24 45 -39 27 -16 52 -41 62 -63 9 -19 20 -35 24 -35 12 0 22 87
15 131 -13 84 -77 165 -163 208 -61 31 -77 28 -69 -10z"/>
<path d="M4328 7753 c-8 -10 -18 -29 -21 -43 -4 -20 1 -29 26 -45 20 -13 37
-35 46 -60 13 -37 12 -45 -7 -88 -14 -31 -33 -54 -57 -68 -35 -21 -36 -23 -29
-63 14 -87 21 -85 73 21 26 54 67 130 91 168 46 75 68 158 48 182 -17 21 -151
18 -170 -4z"/>
<path d="M8302 7757 c-20 -24 2 -107 48 -182 24 -38 65 -114 91 -169 53 -107
57 -107 74 -14 6 32 4 37 -30 57 -24 14 -43 36 -57 68 -19 43 -20 51 -7 88 9
25 26 47 46 60 25 16 30 25 26 45 -11 49 -30 60 -108 60 -48 0 -76 -5 -83 -13z"/>
<path d="M4537 7753 c-4 -3 -7 -16 -7 -27 0 -19 1 -19 17 -3 12 11 14 20 7 27
-6 6 -13 7 -17 3z"/>
<path d="M8245 7749 c-4 -6 0 -18 9 -27 15 -15 16 -15 16 5 0 25 -15 38 -25
22z"/>
<path d="M4252 7728 c-18 -18 -15 -40 6 -36 9 2 18 13 20 26 4 24 -7 29 -26
10z"/>
<path d="M8520 7721 c0 -22 25 -39 38 -27 8 8 -10 38 -26 44 -7 2 -12 -6 -12
-17z"/>
<path d="M4200 7659 c-36 -15 -65 -45 -85 -90 l-18 -39 27 -29 c32 -33 103
-56 142 -47 39 10 81 57 89 100 9 45 -13 82 -60 102 -39 16 -60 17 -95 3z"/>
<path d="M8504 7656 c-39 -17 -64 -52 -64 -87 0 -39 40 -91 83 -108 47 -17
103 -4 149 38 l31 27 -20 46 c-35 77 -113 114 -179 84z"/>
<path d="M4095 7433 c7 -51 28 -118 69 -228 14 -38 29 -94 33 -123 3 -29 8
-50 12 -47 14 15 74 204 74 235 -1 19 -9 63 -18 96 l-17 62 -43 4 c-24 3 -57
15 -73 27 -17 11 -33 21 -37 21 -4 0 -4 -21 0 -47z"/>
<path d="M8667 7458 c-16 -11 -48 -23 -72 -25 l-43 -5 -17 -62 c-9 -33 -17
-77 -18 -96 0 -31 60 -220 74 -235 4 -3 9 20 13 51 3 30 22 97 42 147 49 127
77 248 57 247 -5 0 -21 -10 -36 -22z"/>
<path d="M4090 6717 c-28 -13 -64 -21 -97 -20 -29 0 -53 -2 -53 -4 0 -2 12
-24 26 -49 29 -50 41 -53 122 -29 43 13 52 20 52 39 0 13 3 38 6 55 7 36 4 36
-56 8z"/>
<path d="M8653 6710 c4 -18 7 -43 7 -56 0 -19 9 -26 52 -39 81 -24 93 -21 122
29 14 25 26 48 26 51 0 4 -17 4 -37 1 -35 -5 -80 6 -157 39 -17 8 -19 5 -13
-25z"/>
<path d="M3790 6601 c0 -24 33 -91 45 -91 8 0 24 4 37 9 20 7 32 0 92 -55 l68
-64 -68 -64 c-60 -55 -72 -62 -92 -55 -13 5 -29 9 -37 9 -13 0 -52 -86 -44
-95 3 -2 24 3 48 11 24 8 64 18 89 21 41 6 55 15 124 83 42 43 76 84 74 93 -1
8 -35 48 -75 88 -71 71 -76 74 -150 90 -42 8 -84 19 -93 23 -11 5 -18 4 -18
-3z"/>
<path d="M8980 6600 c-8 -5 -46 -15 -85 -21 -68 -13 -72 -15 -147 -90 -43 -42
-78 -82 -78 -88 0 -7 35 -47 78 -90 69 -69 83 -78 124 -84 25 -3 65 -13 89
-21 24 -8 45 -13 48 -11 8 9 -31 95 -44 95 -8 0 -24 -4 -37 -9 -20 -7 -32 0
-92 55 l-68 64 68 64 c60 55 72 62 92 55 39 -15 49 -10 66 31 24 59 20 72 -14
50z"/>
<path d="M4077 6584 c-27 -7 -51 -15 -54 -18 -3 -2 19 -29 48 -58 l54 -53 3
38 c2 20 2 52 0 70 l-3 33 -48 -12z"/>
<path d="M8670 6528 l0 -69 30 21 c30 21 82 82 76 88 -2 2 -27 9 -55 17 l-51
13 0 -70z"/>
<path d="M3868 6492 c-24 -5 -22 -19 8 -59 l25 -33 -25 -33 c-31 -40 -32 -53
-8 -59 13 -4 36 11 71 45 28 27 51 50 49 51 -2 1 -25 23 -53 47 -30 27 -57 44
-67 41z"/>
<path d="M8862 6449 l-52 -48 52 -49 c34 -33 57 -48 70 -44 24 6 23 19 -8 59
l-25 33 25 33 c31 40 32 53 8 59 -12 3 -36 -12 -70 -43z"/>
<path d="M3733 6437 c-35 -17 -63 -34 -63 -37 0 -3 32 -21 70 -40 l71 -34 24
29 c13 17 24 36 25 43 0 17 -41 72 -54 71 -6 0 -39 -14 -73 -32z"/>
<path d="M8962 6440 c-27 -37 -27 -48 2 -84 l24 -29 71 33 c39 18 71 36 71 39
0 7 -125 71 -138 71 -5 0 -18 -13 -30 -30z"/>
<path d="M4068 6290 c-28 -27 -49 -52 -46 -56 3 -3 29 -11 57 -19 l51 -13 0
69 c0 38 -2 69 -5 69 -3 0 -28 -22 -57 -50z"/>
<path d="M8670 6272 l0 -69 51 13 c29 8 54 15 56 18 6 6 -46 64 -78 87 l-29
20 0 -69z"/>
<path d="M3967 6157 c-15 -25 -27 -48 -27 -50 0 -2 24 -4 53 -4 33 1 70 -7
101 -21 27 -12 51 -21 52 -19 2 2 1 26 -3 54 -6 58 -19 68 -101 79 l-49 6 -26
-45z"/>
<path d="M8735 6193 c-63 -14 -72 -23 -78 -76 -4 -28 -5 -52 -3 -54 1 -2 25 7
52 19 31 14 68 22 102 21 28 0 52 2 52 4 0 2 -12 24 -26 49 -26 45 -40 50 -99
37z"/>
<path d="M4197 5718 c-4 -29 -19 -84 -33 -123 -55 -147 -87 -275 -70 -275 4 0
20 9 35 21 16 12 49 23 74 26 l45 5 18 67 c9 36 17 80 17 96 0 28 -62 217 -74
230 -4 3 -9 -18 -12 -47z"/>
<path d="M8587 5760 c-35 -85 -71 -202 -70 -230 0 -19 9 -63 18 -96 l17 -62
43 -4 c24 -3 57 -15 75 -28 17 -12 34 -20 37 -16 9 9 -17 125 -44 196 -42 112
-52 145 -61 201 -5 30 -12 47 -15 39z"/>
<path d="M4302 5473 c-5 -10 -13 -37 -16 -59 -7 -40 -6 -42 29 -63 24 -14 43
-37 57 -68 19 -43 20 -51 7 -88 -9 -25 -26 -47 -46 -60 -25 -16 -30 -25 -26
-45 11 -49 30 -60 108 -60 48 0 76 5 83 13 20 24 -2 107 -48 182 -24 39 -65
114 -91 168 -39 80 -50 95 -57 80z"/>
<path d="M8461 5433 c-14 -31 -55 -108 -91 -172 -68 -119 -92 -195 -68 -219 7
-7 43 -12 83 -12 78 0 97 11 108 60 5 20 1 28 -24 42 -43 25 -64 81 -49 132
11 38 46 80 83 101 15 8 17 18 11 52 -3 24 -12 49 -18 58 -9 12 -15 4 -35 -42z"/>
<path d="M4183 5338 c-17 -6 -44 -23 -59 -39 l-27 -29 18 -41 c26 -57 77 -94
131 -94 82 0 131 66 101 137 -26 62 -95 89 -164 66z"/>
<path d="M8513 5335 c-37 -16 -73 -68 -73 -106 0 -56 78 -109 138 -94 42 10
86 49 107 94 l18 41 -27 29 c-25 26 -84 52 -117 51 -8 -1 -29 -7 -46 -15z"/>
<path d="M4064 5194 c-9 -51 1 -126 25 -171 25 -48 84 -105 138 -132 61 -31
77 -28 69 10 -3 17 -6 46 -6 64 0 24 -10 43 -40 74 -22 22 -40 47 -40 54 0 6
-21 24 -45 39 -27 16 -52 41 -62 63 -21 44 -30 44 -39 -1z"/>
<path d="M8697 5195 c-10 -22 -35 -47 -62 -63 -24 -15 -45 -33 -45 -39 0 -7
-18 -32 -40 -54 -30 -31 -40 -50 -40 -74 0 -18 -3 -47 -6 -64 -8 -38 8 -41 69
-10 90 45 153 129 164 219 6 51 -3 120 -16 120 -4 0 -15 -16 -24 -35z"/>
<path d="M4240 5098 c0 -16 19 -38 33 -38 4 0 7 10 5 22 -3 25 -38 39 -38 16z"/>
<path d="M8527 5103 c-10 -9 -9 -43 1 -43 12 0 32 23 32 37 0 14 -22 18 -33 6z"/>
<path d="M4530 5073 c0 -25 15 -38 25 -22 4 6 0 18 -9 27 -15 15 -16 15 -16
-5z"/>
<path d="M8251 5076 c-11 -13 -11 -20 -3 -28 8 -8 13 -7 18 5 10 27 0 41 -15
23z"/>
<path d="M4545 5003 c-7 -18 -7 -132 1 -144 4 -7 125 19 136 30 4 3 -15 35
-43 69 -51 63 -81 77 -94 45z"/>
<path d="M8160 4959 c-28 -34 -47 -65 -43 -70 12 -11 133 -38 137 -30 8 12 8
126 1 144 -13 31 -43 18 -95 -44z"/>
<path d="M4320 4946 c0 -47 4 -67 18 -79 23 -21 109 -32 145 -18 26 10 27 14
27 76 0 44 -4 67 -12 70 -7 2 -50 6 -95 8 l-83 5 0 -62z"/>
<path d="M8370 5001 l-75 -6 -3 -68 c-3 -65 -2 -67 25 -78 36 -14 122 -3 145
18 14 12 18 32 18 80 0 54 -2 63 -17 61 -10 -1 -52 -4 -93 -7z"/>
<path d="M4624 4841 c-86 -22 -94 -31 -94 -106 0 -34 2 -64 5 -67 12 -12 97
11 120 32 25 23 40 83 33 131 l-3 25 -61 -15z"/>
<path d="M4714 4783 c-6 -43 -10 -78 -10 -79 1 -1 36 4 79 10 l77 11 -68 68
-68 67 -10 -77z"/>
<path d="M8007 4792 l-67 -68 77 -10 c43 -6 78 -10 79 -10 1 1 -4 36 -10 79
l-11 77 -68 -68z"/>
<path d="M8110 4821 c0 -78 11 -110 44 -130 17 -11 49 -21 71 -23 l40 -3 3 66
c3 79 -5 89 -95 111 l-63 16 0 -37z"/>
<path d="M4326 4774 c-13 -97 -11 -101 40 -108 26 -3 66 -6 90 -6 l42 0 7 65
c10 94 10 95 -88 95 l-84 0 -7 -46z"/>
<path d="M8294 4805 c-4 -9 -3 -45 1 -80 l7 -65 51 0 c29 0 69 3 90 6 41 7 43
15 31 108 l-7 46 -84 0 c-66 0 -85 -3 -89 -15z"/>
<path d="M4738 4683 c-34 -5 -65 -53 -70 -108 l-3 -40 66 -3 c79 -3 89 5 111
96 l16 62 -47 -1 c-25 -1 -58 -4 -73 -6z"/>
<path d="M4886 4682 c-10 -16 -33 -133 -27 -136 12 -8 126 -8 144 -1 30 13 19
41 -35 87 -64 54 -75 61 -82 50z"/>
<path d="M7841 4640 c-62 -52 -75 -82 -43 -95 17 -7 131 -7 143 1 8 4 -19 125
-30 137 -5 4 -36 -15 -70 -43z"/>
<path d="M7958 4628 c22 -91 32 -99 111 -96 l66 3 -3 40 c-8 82 -50 115 -148
115 l-42 0 16 -62z"/>
<path d="M4580 4643 c-42 -8 -60 -32 -60 -80 l0 -43 43 0 c54 0 73 19 82 83 8
51 6 53 -65 40z"/>
<path d="M8155 4604 c9 -65 27 -84 82 -84 l43 0 0 43 c0 55 -19 73 -84 82
l-49 8 8 -49z"/>
<path d="M5047 4554 c-11 -11 3 -24 25 -24 17 0 18 2 8 15 -13 16 -23 19 -33
9z"/>
<path d="M7719 4544 c-11 -14 -10 -16 9 -12 13 1 23 7 23 13 1 17 -17 16 -32
-1z"/>
<path d="M4691 4503 l-34 -4 6 -85 c2 -47 7 -88 10 -91 3 -3 38 -2 77 2 l71 7
-3 87 -3 86 -45 1 c-25 1 -60 -1 -79 -3z"/>
<path d="M4849 4483 c-14 -36 -3 -122 18 -145 12 -14 32 -18 78 -18 l62 0 -4
83 c-3 45 -6 88 -8 95 -3 8 -26 12 -70 12 -62 0 -66 -1 -76 -27z"/>
<path d="M5042 4498 c-7 -7 -12 -43 -12 -83 0 -78 11 -97 60 -108 20 -4 29 1
45 26 13 20 35 37 60 46 37 13 45 12 88 -7 31 -14 54 -33 68 -57 21 -35 23
-36 63 -29 85 14 84 22 -6 65 -45 22 -123 64 -173 93 -94 55 -171 76 -193 54z"/>
<path d="M7685 4500 c-22 -3 -76 -28 -120 -55 -44 -26 -120 -67 -168 -91 -95
-46 -97 -54 -11 -68 40 -7 42 -6 63 29 14 24 37 43 68 57 43 19 51 20 88 7 25
-9 47 -26 60 -46 16 -25 25 -30 45 -26 49 11 60 30 60 108 0 68 -10 97 -34 94
-6 -1 -29 -5 -51 -9z"/>
<path d="M7805 4498 c-2 -7 -5 -50 -8 -95 l-4 -83 62 0 c82 0 97 16 98 102 1
35 -2 69 -6 76 -5 7 -32 12 -73 12 -43 0 -66 -4 -69 -12z"/>
<path d="M7987 4503 c-4 -3 -7 -43 -7 -89 l0 -82 71 -7 c38 -4 72 -5 75 -2 3
2 7 43 11 89 l6 85 -48 6 c-61 9 -100 9 -108 0z"/>
<path d="M4414 4474 c-55 -20 -103 -72 -125 -136 -9 -29 -15 -56 -13 -60 6 -9
88 16 119 36 54 35 106 136 84 162 -13 16 -13 16 -65 -2z"/>
<path d="M8321 4477 c-25 -31 37 -139 99 -172 36 -18 99 -35 104 -26 9 14 -33
113 -60 143 -44 46 -124 77 -143 55z"/>
<path d="M5177 4340 c-31 -25 -51 -81 -42 -118 10 -43 49 -86 95 -107 l42 -19
29 31 c41 47 56 103 38 150 -17 43 -69 83 -109 83 -15 0 -39 -9 -53 -20z"/>
<path d="M7509 4337 c-46 -31 -66 -85 -50 -138 7 -22 24 -54 40 -71 l27 -31
46 20 c74 33 110 101 88 167 -23 72 -89 95 -151 53z"/>
<path d="M4870 4286 c0 -28 40 -99 79 -139 64 -68 157 -99 245 -83 45 9 45 18
1 39 -22 10 -47 35 -63 62 -15 24 -33 45 -39 45 -7 0 -32 18 -54 40 -31 30
-50 40 -74 40 -18 0 -47 3 -64 6 -25 5 -31 3 -31 -10z"/>
<path d="M7848 4293 c-38 -3 -54 -11 -87 -44 -23 -21 -47 -39 -54 -39 -6 0
-24 -21 -39 -45 -16 -27 -41 -52 -63 -62 -19 -9 -35 -20 -35 -24 0 -12 87 -22
131 -15 84 13 163 76 209 165 25 49 26 72 3 69 -10 -1 -39 -3 -65 -5z"/>
<path d="M5490 4281 c-8 -5 -39 -14 -67 -21 -50 -11 -53 -14 -53 -43 0 -18
-11 -52 -25 -76 -14 -23 -25 -45 -25 -48 0 -17 134 18 275 71 39 14 94 29 123
32 59 8 67 19 20 28 -18 3 -69 20 -113 36 -83 31 -110 35 -135 21z"/>
<path d="M7230 4281 c-8 -4 -53 -21 -100 -36 -47 -16 -89 -31 -93 -35 -4 -4
16 -10 45 -13 29 -4 85 -19 123 -33 147 -55 275 -87 275 -70 0 4 -9 20 -21 35
-12 16 -24 49 -26 74 l-5 45 -62 17 c-84 23 -118 27 -136 16z"/>
<path d="M5062 4268 c6 -16 36 -34 44 -26 3 4 4 14 1 23 -7 17 -51 21 -45 3z"/>
<path d="M7693 4265 c-3 -9 -2 -19 1 -23 8 -8 38 10 44 26 6 18 -38 14 -45 -3z"/>
<path d="M6069 4119 c27 -46 41 -114 31 -150 -11 -37 -1 -37 58 -3 l44 26 -6
49 c-9 68 -25 99 -50 99 -12 0 -38 3 -59 6 l-38 7 20 -34z"/>
<path d="M6669 4143 c-42 -5 -55 -25 -65 -102 l-6 -49 44 -26 c25 -14 48 -26
52 -26 4 0 5 17 2 38 -5 33 7 81 39 155 8 18 9 18 -66 10z"/>
<path d="M6215 4079 c8 -28 16 -53 18 -56 7 -6 85 65 98 89 9 17 5 18 -60 18
l-69 0 13 -51z"/>
<path d="M6334 4077 c-27 -29 -61 -62 -75 -72 -19 -16 -27 -33 -33 -72 -3 -29
-13 -71 -21 -94 -9 -23 -13 -44 -10 -47 9 -9 95 30 95 43 0 8 -4 24 -9 37 -7
20 0 32 55 92 l64 68 64 -68 c55 -60 62 -72 55 -92 -5 -13 -9 -29 -9 -37 0
-13 86 -52 95 -44 2 3 -2 23 -9 44 -8 22 -17 63 -21 90 -7 45 -15 57 -85 128
-43 42 -84 77 -92 77 -8 0 -37 -24 -64 -53z"/>
<path d="M6469 4112 c13 -24 91 -95 98 -89 2 3 10 28 18 56 l13 51 -69 0 c-65
0 -69 -1 -60 -18z"/>
<path d="M6349 3937 c-39 -44 -45 -56 -38 -75 l9 -24 40 32 40 32 40 -32 40
-32 9 24 c7 19 2 31 -38 73 -25 28 -48 51 -51 52 -3 1 -26 -22 -51 -50z"/>
<path d="M6361 3840 l-35 -30 34 -70 c19 -38 37 -70 40 -70 3 0 21 32 40 70
l34 70 -35 30 c-18 16 -36 29 -39 29 -3 0 -21 -13 -39 -29z"/>
</g>
</svg>
